<?xml version="1.0" encoding="UTF-8" standalone="no"?>
<!DOCTYPE svg PUBLIC "-//W3C//DTD SVG 1.1//EN" "http://www.w3.org/Graphics/SVG/1.1/DTD/svg11.dtd">
<svg version="1.1" xmlns="http://www.w3.org/2000/svg" xmlns:xlink="http://www.w3.org/1999/xlink" preserveAspectRatio="xMidYMid meet" viewBox="0 0 640 640" width="640" height="640"><defs><path d="M437.15 263.26C437.15 323.34 388.38 372.11 328.3 372.11C268.23 372.11 219.46 323.34 219.46 263.26C219.46 203.19 268.23 154.42 328.3 154.42C388.38 154.42 437.15 203.19 437.15 263.26Z" id="fsUVNX6Cx"></path><path d="M430.51 263.26C430.51 319.68 384.72 365.48 328.3 365.48C271.89 365.48 226.09 319.68 226.09 263.26C226.09 206.85 271.89 161.05 328.3 161.05C384.72 161.05 430.51 206.85 430.51 263.26Z" id="b1FE90ynKO"></path><path d="M581.38 289.03C581.38 321.97 554.64 348.71 521.7 348.71C488.76 348.71 462.01 321.97 462.01 289.03C462.01 256.09 488.76 229.34 521.7 229.34C554.64 229.34 581.38 256.09 581.38 289.03Z" id="fNb9z3I4e"></path><path d="M463.01 300.17C462.69 282.08 434.07 286.46 432.36 295.12C433.16 292.5 436.61 269.15 436.98 266.39C437.26 274.47 460.4 283.28 466.21 268.4C465.9 273.02 464.96 288.7 463.01 300.17Z" id="a2GKY4u5H"></path><path d="M443.38 449.05C443.38 482.75 416.01 510.12 382.3 510.12C348.6 510.12 321.23 482.75 321.23 449.05C321.23 415.34 348.6 387.97 382.3 387.97C416.01 387.97 443.38 415.34 443.38 449.05Z" id="fYcN8SGbZ"></path><path d="M435.2 448.07C435.2 477.26 411.5 500.97 382.3 500.97C353.11 500.97 329.41 477.26 329.41 448.07C329.41 418.87 353.11 395.17 382.3 395.17C411.5 395.17 435.2 418.87 435.2 448.07Z" id="bzk3aeuCe"></path><path d="M283.85 436.12C283.85 468.42 257.62 494.65 225.32 494.65C193.01 494.65 166.79 468.42 166.79 436.12C166.79 403.81 193.01 377.59 225.32 377.59C257.62 377.59 283.85 403.81 283.85 436.12Z" id="k4Qj2NaC7"></path><path d="M278.22 436.12C278.22 465.31 254.51 489.02 225.32 489.02C196.12 489.02 172.42 465.31 172.42 436.12C172.42 406.92 196.12 383.22 225.32 383.22C254.51 383.22 278.22 406.92 278.22 436.12Z" id="aCIuVY5Jw"></path><path d="M195.01 302C195.01 326.06 175.48 345.58 151.43 345.58C127.38 345.58 107.85 326.06 107.85 302C107.85 277.95 127.38 258.42 151.43 258.42C175.48 258.42 195.01 277.95 195.01 302Z" id="a1qzYiz7M2"></path><path d="M572.93 288.68C572.93 317.03 549.91 340.06 521.55 340.06C493.2 340.06 470.18 317.03 470.18 288.68C470.18 260.32 493.2 237.3 521.55 237.3C549.91 237.3 572.93 260.32 572.93 288.68Z" id="dfcfyDmkS"></path><path d="M245.6 383.15C253.29 381.04 268.26 353.22 261.18 347.93C263.21 349.79 282.26 360.61 284.59 362.14C277.18 358.9 257.86 386.78 260.12 391.01C256.09 388.73 250.35 385.84 245.6 383.15Z" id="a10aIlXmj9"></path><path d="M185.56 275.03C198.11 291.92 220.28 277.36 219.46 268.57C219.44 271.32 224.03 292.38 224.46 295.13C221.88 287.47 195.49 288.17 194.48 307.99C192.53 295.23 191.41 285.35 185.56 275.03Z" id="aalTFnl3O"></path><path d="M185.31 329.43C172.07 345.74 192.61 386.22 200.92 383.22C198.26 383.89 183.63 397.08 181.07 398.19C187.85 393.79 175.05 341.58 155.62 345.57C167.49 340.49 176.78 337.64 185.31 329.43Z" id="b3rge1kLf"></path><path d="M282.08 422.85C289.46 442.52 322.46 439.01 324.08 430.32C323.31 432.96 321.92 451.56 321.58 454.33C321.21 446.25 285.3 440.79 278.92 459.58C280.54 446.77 284.85 434.37 282.08 422.85Z" id="azgYBwVvW"></path><path d="M353.7 395.17C357.21 388.02 351.02 369.24 342.38 371.03C345.11 370.74 368.56 363.63 371.25 362.9C363.92 366.31 369.28 387.41 373.94 388.51C369.57 390.03 358.86 393.39 353.7 395.17Z" id="a2nA8yRWNW"></path><path d="M187.63 302C187.63 321.98 171.41 338.2 151.43 338.2C131.45 338.2 115.23 321.98 115.23 302C115.23 282.02 131.45 265.8 151.43 265.8C171.41 265.8 187.63 282.02 187.63 302Z" id="b4GNJHHuDb"></path></defs><g><g><g><use xlink:href="#fsUVNX6Cx" opacity="1" fill="#ff7238" fill-opacity="1"></use></g><g><use xlink:href="#b1FE90ynKO" opacity="1" fill="#363a3e" fill-opacity="1"></use><g><use xlink:href="#b1FE90ynKO" opacity="1" fill-opacity="0" stroke="#ffa338" stroke-width="5" stroke-opacity="1"></use></g></g><g><use xlink:href="#fNb9z3I4e" opacity="1" fill="#ff7238" fill-opacity="1"></use></g><g><use xlink:href="#a2GKY4u5H" opacity="1" fill="#ff7238" fill-opacity="1"></use></g><g><use xlink:href="#fYcN8SGbZ" opacity="1" fill="#ff7238" fill-opacity="1"></use></g><g><use xlink:href="#bzk3aeuCe" opacity="1" fill="#363a3e" fill-opacity="1"></use><g><use xlink:href="#bzk3aeuCe" opacity="1" fill-opacity="0" stroke="#ffa338" stroke-width="5" stroke-opacity="1"></use></g></g><g><use xlink:href="#k4Qj2NaC7" opacity="1" fill="#ff7238" fill-opacity="1"></use></g><g><use xlink:href="#aCIuVY5Jw" opacity="1" fill="#363a3e" fill-opacity="1"></use><g><use xlink:href="#aCIuVY5Jw" opacity="1" fill-opacity="0" stroke="#ffa338" stroke-width="5" stroke-opacity="1"></use></g></g><g><use xlink:href="#a1qzYiz7M2" opacity="1" fill="#ff7238" fill-opacity="1"></use></g><g><use xlink:href="#dfcfyDmkS" opacity="1" fill="#363a3e" fill-opacity="1"></use><g><use xlink:href="#dfcfyDmkS" opacity="1" fill-opacity="0" stroke="#ffa338" stroke-width="5" stroke-opacity="1"></use></g></g><g><use xlink:href="#a10aIlXmj9" opacity="1" fill="#ff7238" fill-opacity="1"></use></g><g><use xlink:href="#aalTFnl3O" opacity="1" fill="#ff7238" fill-opacity="1"></use></g><g><use xlink:href="#b3rge1kLf" opacity="1" fill="#ff7238" fill-opacity="1"></use></g><g><use xlink:href="#azgYBwVvW" opacity="1" fill="#ff7238" fill-opacity="1"></use></g><g><use xlink:href="#a2nA8yRWNW" opacity="1" fill="#ff7238" fill-opacity="1"></use></g><g><use xlink:href="#b4GNJHHuDb" opacity="1" fill="#363a3e" fill-opacity="1"></use><g><use xlink:href="#b4GNJHHuDb" opacity="1" fill-opacity="0" stroke="#ffa338" stroke-width="5" stroke-opacity="1"></use></g></g></g></g></svg>