<?xml version="1.0" encoding="UTF-8" standalone="no"?><!-- Generator: Gravit.io --><svg xmlns="http://www.w3.org/2000/svg" xmlns:xlink="http://www.w3.org/1999/xlink" style="isolation:isolate" viewBox="476.015 60.532 97.119 151.694" width="97.119pt" height="151.694pt"><defs><clipPath id="_clipPath_12tVFDdI02imOJs3CVUsXbv1X93UDJmM"><rect x="476.015" y="60.532" width="97.119" height="151.694"/></clipPath></defs><g clip-path="url(#_clipPath_12tVFDdI02imOJs3CVUsXbv1X93UDJmM)"><path d=" M 535.107 208.311 L 565.834 208.311 L 565.834 159.55 L 535.107 159.55 L 535.107 208.311 Z " fill="rgb(168,171,171)"/><path d=" M 504.501 208.311 L 535.229 208.311 L 535.229 159.55 L 504.501 159.55 L 504.501 208.311 Z " fill="rgb(200,202,201)"/><path d=" M 519.13 100.422 L 517.818 126.63 L 511.659 145.845 L 522.746 145.845 L 528.515 129.289 L 530.314 110.473 L 519.13 100.422 Z " fill="rgb(242,228,223)"/><path d=" M 518.819 192.034 L 521.049 202.424 L 513.562 203.311 L 511.43 193.081 L 518.819 192.034 Z " fill="rgb(251,196,162)"/><path d=" M 521.497 201.485 C 521.308 200.928 520.706 200.722 520.297 201.086 C 519.494 201.8 518.055 202.667 515.927 202.454 C 513.716 202.232 512.884 200.93 512.57 199.996 C 512.404 199.505 511.931 199.254 511.512 199.464 L 498.104 206.204 C 497.289 206.614 496.654 207.378 496.338 208.329 L 496.338 208.329 C 496.041 209.223 496.638 210.183 497.477 210.16 L 520.646 209.52 C 521.557 209.495 522.256 208.601 522.178 207.561 L 521.793 202.457 C 521.786 202.372 521.77 202.289 521.742 202.209 L 521.497 201.485 Z " fill="rgb(47,53,58)"/><path d=" M 518.688 141.789 L 501.303 141.789 C 501.303 141.789 490.713 141.196 490.081 149.889 C 489.449 158.583 505.613 183.439 508.143 196.716 L 522.683 195.517 L 512.209 159.402 L 538.249 159.55 C 540.178 159.561 542.101 159.28 543.923 158.648 C 548.992 156.89 556.732 154.371 552.513 140.406 L 518.688 141.789 Z " fill="rgb(36,53,63)"/><path d=" M 532.107 192.073 L 535.646 204.49 L 528.159 205.376 L 524.718 193.12 L 532.107 192.073 Z " fill="rgb(251,196,162)"/><path d=" M 536.096 203.551 C 535.906 202.994 535.304 202.788 534.895 203.152 C 534.092 203.866 532.653 204.732 530.524 204.52 C 528.314 204.298 527.481 202.995 527.168 202.062 C 527.003 201.571 526.529 201.319 526.11 201.53 L 512.702 208.27 C 511.888 208.679 511.252 209.444 510.936 210.395 L 510.936 210.395 C 510.639 211.289 511.236 212.249 512.075 212.226 L 535.646 211.585 C 536.559 211.56 537.258 210.666 537.18 209.626 L 536.391 204.522 C 536.385 204.438 536.367 204.354 536.341 204.275 L 536.096 203.551 Z " fill="rgb(47,53,58)"/><path d=" M 532.272 92.508 C 532.272 92.508 520.9 96.662 519.13 100.422 L 519.13 100.422 C 519.743 105.732 521.609 110.838 524.688 115.208 C 528.464 120.565 533.138 129.777 532.272 141.789 L 565.142 141.789 C 565.142 141.789 563.372 107.994 553.639 95.028 L 532.272 92.508 Z " fill="rgb(242,228,223)"/><path d=" M 535.999 97.873 L 535.999 97.873 C 539.229 97.212 541.311 94.059 540.65 90.83 L 538.717 81.378 L 527.023 83.769 L 528.957 93.221 C 529.617 96.451 532.77 98.533 535.999 97.873 Z " fill="rgb(251,196,162)"/><path d=" M 539.519 84.676 C 539.519 84.676 538.291 92.337 532.326 92.799 C 527.104 93.204 527.607 85.653 527.607 85.653 L 539.519 84.676 Z " fill="rgb(242,185,151)"/><path d=" M 532.805 88.604 L 533.837 88.365 C 539.005 87.168 542.225 82.009 541.028 76.841 L 539.665 70.953 C 538.469 65.785 533.309 62.565 528.141 63.762 L 527.108 64 C 521.94 65.197 518.721 70.357 519.917 75.525 L 521.28 81.413 C 522.477 86.581 527.636 89.801 532.805 88.604 Z " fill="rgb(251,196,162)"/><path d=" M 537.78 79.289 C 537.538 79.698 537.308 80.321 537.235 81.254 C 537.145 82.443 536.543 83.579 535.548 84.237 C 532.68 86.132 530.487 81.326 526.25 82.175 C 526.25 82.175 524.595 82.429 524.262 84.272 C 523.929 86.114 521.623 82.895 521.113 80.692 C 520.604 78.489 520.343 91.584 530.788 90.473 C 530.788 90.473 536.054 90.304 539.604 84.929 C 539.996 84.338 540.224 83.647 540.244 82.939 C 540.275 81.885 540.124 80.298 539.127 79.162 C 538.762 78.746 538.063 78.814 537.78 79.289 Z " fill="rgb(45,51,56)"/><path d=" M 537.789 76.322 C 537.789 76.322 533.283 74.833 534.042 68.239 C 534.042 68.239 522.838 78.843 514.544 71.06 C 514.544 71.06 518.254 70.072 519.786 67.53 C 522.579 62.895 530.601 56.522 537.018 63.902 C 537.018 63.902 544.826 62.694 542.587 74.724 L 537.789 76.322 Z " fill="rgb(45,51,56)"/><path d=" M 537.789 76.322 C 538.217 78.167 540.059 79.316 541.902 78.889 C 543.748 78.462 544.896 76.621 544.47 74.776 C 544.043 72.931 542.201 71.782 540.356 72.209 C 538.512 72.636 537.362 74.478 537.789 76.322 Z " fill="rgb(251,196,162)"/><path d=" M 532.091 97.497 L 536.921 97.59 L 533.535 104.593 L 529.895 97.879 L 532.091 97.497 Z " fill="rgb(38,60,76)"/><path d=" M 541.063 90.429 L 534.839 97.686 L 538.886 102.335 L 546.337 92.1 C 546.337 92.1 544.432 89.027 541.063 90.429 Z " fill="rgb(254,242,236)"/><path d=" M 532.091 97.497 L 528.515 101.539 L 525.995 95.239 C 525.995 95.239 526.659 92.407 528.714 92.954 L 532.091 97.497 Z " fill="rgb(254,242,236)"/><path d=" M 533.408 102.335 C 533.408 102.335 528.737 114.519 529.895 131.799 L 534.499 135.998 L 539.867 130.823 L 534.078 101.539 L 533.408 102.335 Z " fill="rgb(38,60,76)"/><path d=" M 542.136 131.25 L 532.137 134.54 L 531.476 140.406 L 544.743 136.45 L 542.136 131.25 Z " fill="rgb(251,196,162)"/><path d=" M 533.628 138.417 C 533.628 141.851 530.844 144.635 527.41 144.635 C 523.977 144.635 521.192 141.851 521.192 138.417 C 521.192 134.983 523.977 132.199 527.41 132.199 C 530.844 132.199 533.628 134.983 533.628 138.417 Z " fill="rgb(251,196,162)"/><path d=" M 532.272 141.789 L 514.888 141.789 C 514.888 141.789 504.299 141.196 503.666 149.889 C 503.034 158.583 520.383 185.035 522.912 198.312 L 537.453 197.112 L 525.794 159.402 L 551.834 159.55 C 553.763 159.561 555.686 159.28 557.508 158.648 C 562.577 156.89 570.317 154.371 566.098 140.406 L 532.272 141.789 Z " fill="rgb(38,60,76)"/><path d=" M 479.838 111.062 L 509.884 111.062 C 510.871 111.062 511.725 111.752 511.931 112.718 L 517.586 139.259 C 517.863 140.562 516.87 141.789 515.539 141.789 L 484.995 141.789 C 483.992 141.789 483.131 141.078 482.94 140.095 L 477.783 113.554 C 477.532 112.262 478.521 111.062 479.838 111.062 Z " fill="rgb(168,171,171)"/><path d=" M 478.108 111.062 L 508.153 111.062 C 509.142 111.062 509.994 111.752 510.2 112.718 L 515.855 139.259 C 516.134 140.562 515.141 141.789 513.809 141.789 L 483.265 141.789 C 482.263 141.789 481.401 141.078 481.21 140.095 L 476.054 113.554 C 475.803 112.262 476.792 111.062 478.108 111.062 Z " fill="rgb(200,202,201)"/><path d=" M 516.777 139.523 L 537.307 139.523 C 537.933 139.523 538.439 140.03 538.439 140.656 L 538.439 140.656 C 538.439 141.281 537.933 141.789 537.307 141.789 L 516.381 141.789 L 516.777 139.523 Z " fill="rgb(168,171,171)"/><path d=" M 496.711 125.731 C 496.711 127.54 495.246 129.005 493.438 129.005 C 491.63 129.005 490.164 127.54 490.164 125.731 C 490.164 123.924 491.63 122.458 493.438 122.458 C 495.246 122.458 496.711 123.924 496.711 125.731 Z " fill="rgb(254,254,254)"/><path d=" M 550.145 104.386 L 561.121 122.12 L 534.839 131.498 L 538.439 139.275 C 538.439 139.275 560.91 136.753 571.77 128.386 C 572.769 127.616 573.265 126.367 573.104 125.115 C 572.593 121.12 570.409 111.404 561.126 97.608 C 559.235 94.798 555.477 93.948 552.545 95.645 L 552.545 95.645 C 549.49 97.413 548.422 101.306 550.145 104.386 Z " fill="rgb(242,228,223)"/></g></svg>