<?xml version="1.0" encoding="UTF-8" standalone="no"?><!-- Generator: Gravit.io --><svg xmlns="http://www.w3.org/2000/svg" xmlns:xlink="http://www.w3.org/1999/xlink" style="isolation:isolate" viewBox="121.268 267 82.64 158.599" width="82.64pt" height="158.599pt"><defs><clipPath id="_clipPath_SHZB3CI1fj8AvEUaxtz4PLvdQUpwgrBO"><rect x="121.268" y="267" width="82.64" height="158.599"/></clipPath></defs><g clip-path="url(#_clipPath_SHZB3CI1fj8AvEUaxtz4PLvdQUpwgrBO)"><path d=" M 137.472 331.96 C 137.472 331.96 129.786 337.285 129.088 340.674 C 128.389 344.063 128.389 360.473 128.389 360.473 C 128.389 360.473 121.581 369.376 122.105 371.646 C 122.629 373.915 125.422 377.931 127.691 380.549 C 127.691 380.549 125.247 384.739 128.04 387.707 C 130.834 390.675 144.451 388.696 144.451 388.696 L 148.815 373.148 L 137.472 331.96 Z " fill="rgb(142,200,195)"/><path d=" M 183.684 348.584 L 184.353 346.131 L 188.451 331.119 C 188.451 331.119 196.198 336.587 196.896 339.975 C 197.594 343.364 197.594 359.774 197.594 359.774 C 197.594 359.774 204.403 368.678 203.879 370.947 C 203.355 373.217 200.562 377.232 198.292 379.85 C 198.292 379.85 200.737 384.04 197.943 387.009 C 195.15 389.975 181.533 387.998 181.533 387.998 L 177.169 372.448 L 183.684 348.584 Z " fill="rgb(142,200,195)"/><path d=" M 168.957 313.417 L 168.957 324.293 C 165.629 325.797 161.814 325.797 158.486 324.293 L 158.486 313.417 L 168.957 313.417 Z " fill="rgb(236,200,159)"/><path d=" M 173.115 297.677 C 172.67 295.601 171.078 294.216 169.328 293.303 C 165.84 291.482 161.604 291.482 158.116 293.303 C 156.366 294.216 154.774 295.601 154.329 297.677 C 153.217 302.867 156.553 319.553 163.722 319.553 C 170.89 319.553 174.227 302.867 173.115 297.677 Z " fill="rgb(244,209,170)"/><path d=" M 155.962 305.745 C 155.962 305.745 154.15 302.785 152.749 303.938 C 151.348 305.092 153.408 311.354 156.951 311.354 L 155.962 305.745 Z " fill="rgb(234,199,160)"/><path d=" M 171.481 305.745 C 171.481 305.745 173.293 302.785 174.694 303.938 C 176.095 305.092 174.035 311.354 170.492 311.354 L 171.481 305.745 Z " fill="rgb(234,199,160)"/><path d=" M 140.735 392.006 L 140.098 396.436 L 186.088 396.436 L 184.822 390.492 L 185.821 376.483 L 188.451 331.119 C 188.451 331.119 180.166 327.006 174.362 324.248 C 171.662 322.962 169.497 321.974 168.953 321.825 C 168.953 321.825 168.252 323.101 166.214 323.902 C 166.007 323.981 165.799 324.06 165.582 324.119 C 164.761 324.347 163.911 324.426 163.08 324.347 C 162.447 324.287 161.815 324.139 161.221 323.902 C 159.185 323.101 158.483 321.825 158.483 321.825 C 157.998 321.964 155.704 323.031 152.798 324.426 C 146.549 327.432 137.472 331.96 137.472 331.96 L 141.348 373.517 L 140.735 392.006 Z " fill="rgb(142,200,195)"/><path d=" M 172.706 326.427 C 172.52 326.541 172.329 326.64 172.141 326.745 C 171.678 325.443 170.964 324.273 169.99 323.281 C 169.518 322.799 168.777 323.539 169.249 324.022 C 170.148 324.937 170.803 326.01 171.208 327.226 C 170.273 327.668 169.311 328.022 168.331 328.281 C 168.223 327.225 168.003 326.204 167.633 325.207 C 167.4 324.581 166.387 324.853 166.622 325.487 C 166.967 326.413 167.199 327.364 167.296 328.35 C 167.301 328.412 167.324 328.464 167.346 328.516 C 164.561 329.067 161.676 328.886 158.975 327.961 C 159.408 327.31 159.844 326.657 160.277 326.005 C 160.652 325.442 159.745 324.917 159.372 325.476 C 158.906 326.177 158.439 326.879 157.973 327.58 C 157.708 327.469 157.443 327.356 157.184 327.231 L 159.046 324.399 C 159.417 323.834 158.51 323.309 158.141 323.869 C 157.512 324.827 156.882 325.785 156.251 326.743 C 155.738 326.455 155.232 326.147 154.745 325.799 C 154.195 325.406 153.671 326.315 154.217 326.703 C 159.85 330.723 167.348 330.956 173.236 327.331 C 173.809 326.978 173.283 326.072 172.706 326.427 Z " fill="rgb(108,181,175)"/><path d=" M 142.61 373.346 C 142.105 372.624 141.548 371.953 140.961 371.316 C 141.313 366.334 141.493 361.347 141.516 356.354 C 141.771 356.968 142.785 356.699 142.527 356.075 C 140.496 351.187 139.47 346.09 139.469 340.792 C 139.469 340.118 138.422 340.117 138.422 340.792 C 138.423 343.715 138.735 346.581 139.346 349.389 C 138.658 348.877 137.999 348.331 137.399 347.711 C 136.929 347.226 136.189 347.967 136.658 348.451 C 137.571 349.395 138.588 350.221 139.692 350.929 C 139.7 350.934 139.707 350.933 139.714 350.938 C 139.967 351.914 140.253 352.883 140.58 353.844 C 140.521 353.923 140.478 354.018 140.479 354.144 C 140.506 359.549 140.333 364.948 139.974 370.34 C 138.675 369.119 137.229 368.063 135.608 367.238 C 135.009 366.932 134.478 367.835 135.08 368.142 C 136.896 369.067 138.501 370.279 139.894 371.719 C 139.889 372.026 140.115 372.183 140.362 372.189 C 140.839 372.72 141.29 373.281 141.706 373.874 C 142.089 374.422 142.998 373.9 142.61 373.346 Z " fill="rgb(108,181,175)"/><path d=" M 181.026 373.346 C 181.532 372.624 182.088 371.953 182.675 371.316 C 182.323 366.334 182.143 361.347 182.12 356.354 C 181.865 356.968 180.851 356.699 181.11 356.075 C 183.14 351.187 184.166 346.09 184.167 340.792 C 184.167 340.118 185.214 340.117 185.214 340.792 C 185.214 343.715 184.901 346.581 184.291 349.389 C 184.978 348.877 185.637 348.331 186.237 347.711 C 186.707 347.226 187.447 347.967 186.978 348.451 C 186.065 349.395 185.049 350.221 183.944 350.929 C 183.937 350.934 183.929 350.933 183.922 350.938 C 183.669 351.914 183.383 352.883 183.056 353.844 C 183.115 353.923 183.158 354.018 183.158 354.144 C 183.13 359.549 183.304 364.948 183.662 370.34 C 184.961 369.119 186.407 368.063 188.028 367.238 C 188.628 366.932 189.158 367.835 188.557 368.142 C 186.74 369.067 185.135 370.279 183.742 371.719 C 183.747 372.026 183.521 372.183 183.274 372.189 C 182.797 372.72 182.347 373.281 181.931 373.874 C 181.547 374.422 180.638 373.9 181.026 373.346 Z " fill="rgb(108,181,175)"/><path d=" M 183.817 390.808 L 139.786 390.808 L 139.786 360.652 L 183.817 360.652 L 183.817 390.808 Z " fill="rgb(166,166,166)"/><path d=" M 165.16 376.065 C 163.618 376.065 162.368 374.815 162.368 373.272 C 162.368 372.62 162.601 372.027 162.976 371.552 C 162.602 371.448 162.216 371.374 161.809 371.374 C 159.404 371.374 157.453 373.323 157.453 375.729 C 157.453 378.134 159.404 380.086 161.809 380.086 C 164.165 380.086 166.072 378.211 166.151 375.875 C 165.842 375.992 165.51 376.065 165.16 376.065 Z " fill="rgb(255,255,255)"/><path d=" M 139.787 375.729 C 139.787 375.729 137.747 376.809 137.12 377.853 C 136.494 378.897 136.311 379.68 136.311 379.68 L 134.588 379.445 L 133.414 385.658 C 133.414 385.658 138.269 388.216 138.974 388.424 C 139.679 388.634 145.082 387.328 145.369 387.198 C 145.656 387.068 149.78 381.507 149.807 381.038 C 149.832 380.568 148.841 378.009 148.841 378.009 C 148.841 378.009 145.708 377.565 145.447 377.723 C 145.186 377.879 139.787 379.315 139.787 379.315 L 139.787 375.729 Z " fill="rgb(244,209,170)"/><path d=" M 134.596 374.271 C 134.279 378.66 133.561 382.969 132.447 387.224 C 132.276 387.876 133.285 388.155 133.456 387.503 C 134.596 383.154 135.32 378.754 135.644 374.271 C 135.692 373.598 134.645 373.602 134.596 374.271 Z " fill="rgb(233,195,174)"/><path d=" M 183.816 375.675 C 183.816 375.675 185.856 376.754 186.483 377.798 C 187.109 378.842 187.292 379.625 187.292 379.625 L 189.015 379.391 L 190.189 385.603 C 190.189 385.603 185.334 388.161 184.629 388.37 C 183.924 388.579 178.521 387.274 178.234 387.143 C 177.947 387.013 173.823 381.452 173.796 380.983 C 173.771 380.513 174.762 377.955 174.762 377.955 C 174.762 377.955 177.895 377.511 178.156 377.668 C 178.417 377.824 183.816 379.26 183.816 379.26 L 183.816 375.675 Z " fill="rgb(244,209,170)"/><path d=" M 189.026 374.271 C 189.343 378.66 190.061 382.969 191.175 387.224 C 191.346 387.876 190.337 388.155 190.166 387.503 C 189.026 383.154 188.302 378.754 187.978 374.271 C 187.93 373.598 188.978 373.602 189.026 374.271 Z " fill="rgb(233,195,174)"/><path d=" M 140.523 392.508 C 140.523 392.508 161.961 387.096 185.066 392.508 L 161.21 405.949 L 140.523 392.508 Z " fill="rgb(28,28,62)"/><path d=" M 200.224 423.773 C 198.663 425.743 194.285 425.596 191.436 425.596 C 191.111 425.596 190.692 425.512 190.189 425.355 C 188.346 424.799 185.445 423.323 182.899 421.909 L 182.889 421.909 C 180.04 420.317 177.652 418.839 177.652 418.839 L 172.404 416.964 L 175.326 409.674 L 180.123 412.01 C 180.123 412.01 185.329 412.796 189.959 413.812 C 191.97 414.252 193.887 414.745 195.176 415.237 C 195.898 415.499 196.432 415.771 196.694 416.033 C 198.297 417.646 201.942 421.605 200.224 423.773 Z " fill="rgb(246,225,212)"/><path d=" M 200.224 423.773 C 198.663 425.743 194.285 425.596 191.436 425.596 C 191.111 425.596 190.692 425.512 190.189 425.355 C 190.2 423.271 190.786 420.976 191.279 419.803 C 192.065 417.928 193.447 416.263 195.176 415.237 C 195.898 415.499 196.432 415.771 196.694 416.033 C 198.297 417.646 201.942 421.605 200.224 423.773 Z " fill="rgb(233,195,174)"/><path d=" M 184.187 414.917 C 183.105 416.136 182.41 417.587 182.192 419.205 C 182.103 419.865 183.112 420.15 183.202 419.484 C 183.396 418.042 183.959 416.75 184.928 415.658 C 185.374 415.155 184.636 414.412 184.187 414.917 Z " fill="rgb(233,195,174)"/><path d=" M 187.077 415.713 C 185.665 417.054 184.888 418.843 184.854 420.788 C 184.842 421.463 185.89 421.463 185.901 420.788 C 185.931 419.107 186.599 417.61 187.818 416.453 C 188.307 415.988 187.566 415.248 187.077 415.713 Z " fill="rgb(233,195,174)"/><path d=" M 142.699 387.063 C 139.335 385.237 135.707 384.868 131.976 385.203 C 128.833 385.484 123.737 387.12 121.785 390.04 C 120.179 392.444 122.719 396.669 124.052 398.785 C 125.6 401.241 127.824 403.082 130.113 404.82 C 134.544 408.185 161.106 416.87 173.168 419.707 L 180.501 407.957 C 169.358 401.464 145.953 388.829 142.699 387.063 Z " fill="rgb(38,36,78)"/><path d=" M 149.548 416.965 L 144.29 418.84 C 144.29 418.84 141.902 420.318 139.052 421.909 L 139.042 421.909 C 136.078 423.543 132.663 425.272 130.945 425.555 C 130.777 425.586 130.631 425.597 130.505 425.597 C 127.656 425.597 123.278 425.743 121.717 423.774 C 119.999 421.606 123.655 417.647 125.247 416.033 C 125.415 415.865 125.687 415.698 126.064 415.52 C 127.311 414.944 129.573 414.347 131.992 413.813 C 136.612 412.797 141.818 412.011 141.818 412.011 L 146.615 409.675 L 149.548 416.965 Z " fill="rgb(246,225,212)"/><path d=" M 131.469 423.292 C 131.49 424.077 131.291 424.853 130.945 425.555 C 130.778 425.586 130.631 425.597 130.505 425.597 C 127.656 425.597 123.278 425.743 121.717 423.773 C 119.999 421.605 123.655 417.646 125.247 416.033 C 125.415 415.865 125.687 415.698 126.064 415.52 C 127.698 416.399 129.039 417.961 130.055 419.553 C 130.788 420.694 131.448 421.94 131.469 423.292 Z " fill="rgb(233,195,174)"/><path d=" M 135.402 414.76 C 134.799 414.465 134.267 415.368 134.874 415.664 C 136.3 416.361 137.158 417.759 137.108 419.349 C 137.086 420.024 138.133 420.023 138.155 419.349 C 138.216 417.418 137.142 415.609 135.402 414.76 Z " fill="rgb(233,195,174)"/><path d=" M 138.046 413.61 C 137.483 413.236 136.958 414.143 137.517 414.514 C 138.948 415.464 139.846 416.983 139.979 418.697 C 140.03 419.364 141.078 419.37 141.026 418.697 C 140.864 416.596 139.802 414.776 138.046 413.61 Z " fill="rgb(233,195,174)"/><path d=" M 179.244 387.063 C 182.608 385.237 186.236 384.868 189.967 385.203 C 193.11 385.484 198.206 387.12 200.158 390.04 C 201.764 392.444 199.224 396.669 197.891 398.785 C 196.343 401.241 194.119 403.082 191.83 404.82 C 187.399 408.185 159.961 416.87 147.899 419.707 L 143.316 408.875 C 154.458 402.379 175.99 388.829 179.244 387.063 Z " fill="rgb(38,36,78)"/><path d=" M 174.365 303.747 L 172.547 304.718 L 171.972 300.226 C 171.225 299.851 170.459 299.46 169.911 298.829 C 169.364 298.197 169.083 297.259 169.452 296.509 C 167.393 297.479 164.693 296.803 163.334 294.976 C 161.342 296.565 158.666 297.316 156.147 296.928 C 154.445 297.976 154.628 305.38 154.628 305.38 L 152.749 303.938 C 151.628 302.691 150.749 300.986 150.61 299.315 C 150.48 297.753 150.948 295.994 152.285 295.176 C 151.619 293.298 152.044 290.941 153.217 289.331 C 154.389 287.721 156.382 286.742 158.373 286.8 C 159.923 285.118 162.283 283.937 164.57 283.998 C 166.856 284.058 169.096 285.145 170.556 286.906 C 171.719 286.812 173.128 287.386 174.016 288.143 C 174.922 288.914 175.603 289.976 175.806 291.147 C 176.01 292.32 175.703 293.596 174.899 294.472 C 175.617 295.7 176.462 296.997 176.643 298.408 C 176.881 300.272 175.817 302.554 174.365 303.747 Z " fill="rgb(106,106,106)"/><g><path d=" M 199.022 273.446 L 200.245 273.048 C 199.984 272.247 199.609 271.489 199.134 270.797 L 199.134 270.797 C 198.976 270.566 198.806 270.343 198.626 270.128 L 198.626 270.127 C 198.265 269.697 197.862 269.299 197.42 268.942 L 197.42 268.942 C 196.977 268.585 196.496 268.267 195.98 267.998 L 195.98 267.998 C 195.464 267.729 194.914 267.507 194.336 267.341 C 193.757 267.175 193.173 267.071 192.593 267.026 C 192.368 267.009 192.143 267 191.919 267 C 191.567 267 191.217 267.021 190.872 267.063 C 190.308 267.132 189.755 267.255 189.221 267.429 L 189.22 267.429 C 188.954 267.516 188.692 267.615 188.435 267.727 L 188.435 267.727 C 187.665 268.062 186.946 268.507 186.3 269.047 L 186.299 269.047 C 185.008 270.128 184.011 271.6 183.513 273.338 L 183.514 273.337 C 183.436 273.607 183.378 273.869 183.33 274.123 L 183.331 274.12 C 183.298 274.291 183.283 274.426 183.269 274.522 L 183.268 274.527 C 183.257 274.609 183.239 274.72 183.226 274.861 L 183.227 274.85 C 183.204 275.067 183.192 275.274 183.186 275.47 L 183.186 275.483 L 183.185 275.502 L 183.185 275.493 C 183.183 275.58 183.182 275.667 183.182 275.754 C 183.181 277.104 183.496 278.415 184.074 279.594 L 185.228 279.028 L 184.041 279.521 C 184.281 280.098 184.478 280.679 184.615 281.255 C 184.752 281.831 184.827 282.4 184.827 282.961 C 184.827 283.272 184.804 283.581 184.755 283.888 L 184.755 283.888 C 184.689 284.301 184.643 284.718 184.623 285.147 C 184.595 285.744 184.978 286.278 185.552 286.443 L 185.57 286.448 L 185.924 285.213 L 184.689 284.858 L 184.467 285.631 L 185.703 285.985 L 186.057 284.749 L 186.032 284.742 L 186.034 284.743 C 185.894 284.702 185.75 284.683 185.608 284.683 C 185.269 284.683 184.949 284.793 184.688 284.987 C 184.427 285.179 184.221 285.466 184.125 285.8 L 184.126 285.799 C 184.085 285.939 184.065 286.083 184.065 286.225 C 184.066 286.564 184.176 286.884 184.369 287.145 C 184.562 287.405 184.848 287.612 185.182 287.708 L 185.183 287.708 L 185.208 287.715 L 185.561 286.479 L 184.326 286.125 L 184.137 286.784 L 185.372 287.138 L 185.726 285.902 L 185.702 285.895 L 185.703 285.896 C 185.563 285.855 185.419 285.836 185.277 285.836 C 184.938 285.836 184.619 285.946 184.358 286.14 C 184.097 286.332 183.89 286.618 183.795 286.953 L 183.795 286.952 C 183.754 287.092 183.735 287.236 183.735 287.378 C 183.735 287.717 183.845 288.037 184.039 288.298 C 184.231 288.559 184.517 288.765 184.852 288.861 L 184.854 288.861 L 184.879 288.869 L 185.232 287.633 L 183.989 287.304 C 183.888 287.688 183.839 288.077 183.839 288.46 C 183.839 289.428 184.15 290.354 184.701 291.113 C 184.943 291.447 185.328 291.643 185.741 291.643 L 185.741 291.643 L 185.741 290.358 L 184.701 291.114 C 184.77 291.208 184.842 291.3 184.919 291.389 L 184.925 291.396 L 184.931 291.404 L 184.928 291.399 C 185.077 291.573 185.242 291.738 185.421 291.89 L 186.252 290.91 L 185.409 291.88 L 185.421 291.891 L 185.438 291.905 C 185.524 291.977 185.613 292.046 185.704 292.111 L 185.716 292.12 L 185.739 292.136 L 185.736 292.134 C 185.92 292.264 186.115 292.38 186.319 292.48 L 186.354 292.497 L 186.366 292.503 C 186.466 292.551 186.567 292.595 186.67 292.635 L 186.664 292.632 C 186.7 292.647 186.723 292.655 186.732 292.658 L 186.728 292.657 C 186.823 292.692 186.931 292.729 187.052 292.764 L 187.05 292.764 C 187.172 292.799 187.283 292.824 187.383 292.845 L 187.384 292.845 C 187.391 292.846 187.409 292.85 187.44 292.856 L 187.444 292.857 C 187.553 292.878 187.662 292.894 187.77 292.906 L 187.786 292.908 L 187.824 292.912 L 187.822 292.911 C 187.969 292.926 188.115 292.933 188.261 292.933 C 188.342 292.933 188.424 292.931 188.504 292.927 L 188.497 292.927 L 188.523 292.926 L 188.541 292.925 C 188.655 292.917 188.768 292.906 188.878 292.89 L 188.898 292.887 L 188.914 292.885 L 188.714 291.615 L 188.901 292.887 C 189.133 292.852 189.361 292.8 189.583 292.73 L 189.198 291.504 L 189.563 292.737 L 189.569 292.735 L 189.592 292.728 C 190.274 292.512 190.896 292.136 191.407 291.631 C 191.917 291.125 192.316 290.487 192.542 289.758 L 191.314 289.378 L 190.959 290.613 L 190.967 290.615 L 190.968 290.615 C 191.107 290.655 191.251 290.675 191.393 290.675 C 191.731 290.675 192.052 290.565 192.312 290.371 C 192.574 290.178 192.78 289.892 192.875 289.559 L 192.875 289.558 C 192.916 289.419 192.935 289.274 192.935 289.133 C 192.935 288.794 192.825 288.474 192.631 288.213 C 192.439 287.952 192.153 287.746 191.818 287.65 L 191.809 287.648 L 191.803 287.646 L 191.458 288.884 L 192.693 289.239 L 192.882 288.58 L 191.647 288.225 L 191.28 289.457 L 191.286 289.459 L 191.298 289.462 C 191.438 289.502 191.582 289.522 191.724 289.522 C 192.062 289.522 192.382 289.412 192.643 289.218 C 192.904 289.025 193.111 288.739 193.206 288.404 L 193.206 288.405 C 193.246 288.265 193.266 288.121 193.266 287.98 C 193.266 287.641 193.156 287.321 192.962 287.06 C 192.769 286.799 192.483 286.592 192.149 286.497 L 192.153 286.498 L 192.147 286.497 L 191.788 287.731 L 193.024 288.085 L 193.245 287.313 L 192.01 286.959 L 193.131 287.588 C 193.341 287.214 193.523 286.836 193.686 286.45 C 193.966 285.791 194.365 285.196 194.863 284.644 C 195.361 284.093 195.956 283.589 196.607 283.126 L 195.862 282.079 L 196.54 283.171 C 197.727 282.434 198.739 281.411 199.468 280.165 L 199.471 280.159 L 199.48 280.143 L 199.478 280.146 C 199.578 279.976 199.678 279.794 199.774 279.598 L 199.769 279.607 C 199.832 279.48 199.876 279.377 199.91 279.302 L 199.912 279.297 C 199.951 279.208 200.009 279.085 200.073 278.924 L 200.072 278.926 C 200.166 278.686 200.255 278.432 200.332 278.164 L 200.332 278.163 C 200.563 277.36 200.674 276.547 200.673 275.747 C 200.673 274.819 200.525 273.909 200.245 273.048 L 199.022 273.446 L 197.8 273.844 C 197.998 274.452 198.103 275.094 198.103 275.747 C 198.103 276.31 198.025 276.883 197.861 277.455 L 197.861 277.454 C 197.811 277.63 197.749 277.807 197.678 277.989 L 197.677 277.991 C 197.656 278.047 197.616 278.133 197.561 278.256 L 197.564 278.251 C 197.52 278.348 197.489 278.419 197.469 278.46 L 197.464 278.469 C 197.403 278.593 197.334 278.72 197.256 278.854 L 197.254 278.857 L 197.245 278.873 L 197.248 278.868 C 196.735 279.746 196.023 280.465 195.183 280.987 L 195.116 281.032 C 194.353 281.575 193.613 282.194 192.956 282.921 C 192.299 283.647 191.726 284.485 191.319 285.448 C 191.188 285.758 191.048 286.046 190.889 286.33 C 190.844 286.411 190.8 286.515 190.774 286.604 L 190.553 287.376 C 190.357 288.059 190.748 288.767 191.429 288.965 L 191.436 288.967 L 191.44 288.968 L 191.724 287.979 L 190.898 288.592 C 191.026 288.766 191.218 288.905 191.44 288.968 L 191.724 287.979 L 190.898 288.592 L 191.724 287.98 L 190.695 287.98 C 190.696 288.206 190.769 288.419 190.898 288.592 L 191.724 287.98 L 190.695 287.98 L 191.723 287.98 L 190.735 287.696 C 190.709 287.789 190.695 287.885 190.695 287.98 L 191.723 287.98 L 190.735 287.696 L 190.735 287.697 L 191.724 287.98 L 191.111 287.154 C 190.937 287.282 190.798 287.475 190.735 287.697 L 191.724 287.98 L 191.111 287.154 L 191.724 287.98 L 191.724 286.951 C 191.497 286.952 191.285 287.025 191.111 287.154 L 191.724 287.98 L 191.724 286.951 L 191.724 287.979 L 192.007 286.991 C 191.915 286.965 191.818 286.951 191.724 286.951 L 191.724 287.979 L 192.007 286.991 L 192.019 286.995 L 192.013 286.993 C 191.684 286.895 191.33 286.933 191.029 287.098 C 190.728 287.262 190.506 287.54 190.411 287.87 L 190.222 288.529 C 190.127 288.859 190.168 289.211 190.335 289.511 C 190.503 289.811 190.781 290.03 191.112 290.122 L 191.118 290.124 L 191.109 290.121 L 191.393 289.133 L 190.567 289.745 C 190.695 289.919 190.887 290.058 191.109 290.121 L 191.393 289.133 L 190.567 289.745 L 191.393 289.133 L 190.365 289.133 C 190.365 289.359 190.438 289.572 190.567 289.745 L 191.393 289.133 L 190.365 289.133 L 191.392 289.133 L 190.404 288.849 C 190.378 288.942 190.365 289.038 190.365 289.133 L 191.392 289.133 L 190.404 288.849 L 190.405 288.849 L 191.393 289.133 L 190.78 288.307 C 190.606 288.435 190.467 288.628 190.405 288.849 L 191.393 289.133 L 190.78 288.307 L 191.393 289.133 L 191.393 288.105 C 191.166 288.105 190.953 288.178 190.78 288.307 L 191.393 289.133 L 191.393 288.105 L 191.393 289.132 L 191.676 288.144 C 191.584 288.118 191.488 288.104 191.393 288.105 L 191.393 289.132 L 191.676 288.144 L 191.677 288.144 L 191.669 288.142 C 190.998 287.95 190.293 288.331 190.086 288.998 C 189.988 289.315 189.818 289.586 189.598 289.804 C 189.378 290.022 189.107 290.185 188.818 290.276 L 189.205 291.502 L 188.841 290.269 L 188.834 290.271 L 188.814 290.278 C 188.72 290.307 188.624 290.329 188.527 290.343 L 188.514 290.345 L 188.498 290.348 L 188.698 291.617 L 188.518 290.345 C 188.47 290.352 188.423 290.356 188.378 290.359 L 188.459 291.642 L 188.395 290.358 L 188.369 290.36 L 188.362 290.36 C 188.328 290.362 188.294 290.363 188.261 290.363 C 188.201 290.363 188.141 290.36 188.081 290.354 L 188.079 290.354 L 188.041 290.35 L 187.914 291.629 L 188.057 290.351 C 188.013 290.347 187.969 290.34 187.925 290.331 L 187.929 290.332 L 187.928 290.332 C 187.925 290.332 187.915 290.33 187.899 290.326 L 187.9 290.326 C 187.842 290.314 187.797 290.303 187.761 290.293 L 187.759 290.293 C 187.724 290.283 187.679 290.268 187.624 290.247 L 187.62 290.246 L 187.603 290.239 L 187.602 290.239 L 187.477 290.567 L 187.606 290.24 L 187.602 290.239 L 187.477 290.567 L 187.606 290.24 L 187.6 290.238 C 187.557 290.222 187.517 290.204 187.479 290.186 L 186.923 291.345 L 187.491 290.192 L 187.457 290.175 C 187.372 290.133 187.292 290.085 187.217 290.032 L 187.214 290.03 L 187.191 290.014 L 186.453 291.067 L 187.203 290.023 C 187.163 289.994 187.126 289.966 187.091 289.936 L 186.265 290.92 L 187.108 289.95 L 187.095 289.94 L 187.084 289.93 C 187.011 289.868 186.941 289.799 186.877 289.724 L 186.873 289.719 L 186.866 289.711 L 186.872 289.718 C 186.84 289.681 186.81 289.642 186.78 289.602 C 186.538 289.268 186.153 289.072 185.741 289.072 L 185.741 289.072 L 185.741 290.358 L 186.781 289.602 C 186.544 289.277 186.409 288.874 186.409 288.46 C 186.409 288.296 186.43 288.129 186.475 287.961 C 186.654 287.283 186.26 286.589 185.585 286.397 L 185.559 286.389 L 185.561 286.39 L 185.277 287.378 L 186.103 286.765 C 185.975 286.592 185.782 286.453 185.561 286.39 L 185.277 287.378 L 186.103 286.765 L 185.277 287.378 L 186.305 287.378 C 186.305 287.152 186.232 286.939 186.103 286.765 L 185.277 287.378 L 186.305 287.378 L 185.277 287.378 L 186.265 287.662 C 186.292 287.57 186.305 287.473 186.305 287.378 L 185.277 287.378 L 186.265 287.662 L 186.265 287.662 L 185.277 287.378 L 185.89 288.204 C 186.063 288.076 186.203 287.883 186.265 287.662 L 185.277 287.378 L 185.89 288.204 L 185.277 287.378 L 185.277 288.406 C 185.504 288.406 185.716 288.333 185.89 288.204 L 185.277 287.378 L 185.277 288.406 L 185.277 287.378 L 184.993 288.366 C 185.086 288.393 185.182 288.406 185.277 288.406 L 185.277 287.378 L 184.993 288.366 L 184.994 288.367 L 185.019 288.374 C 185.701 288.569 186.412 288.175 186.608 287.492 L 186.797 286.834 C 186.891 286.503 186.852 286.156 186.685 285.856 C 186.519 285.555 186.245 285.338 185.915 285.243 L 185.891 285.236 L 185.892 285.237 L 185.608 286.225 L 186.434 285.612 C 186.306 285.439 186.113 285.3 185.892 285.237 L 185.608 286.225 L 186.434 285.612 L 185.608 286.225 L 186.636 286.225 C 186.636 285.998 186.562 285.786 186.434 285.612 L 185.608 286.225 L 186.636 286.225 L 185.608 286.225 L 186.596 286.509 C 186.623 286.417 186.636 286.32 186.636 286.225 L 185.608 286.225 L 186.596 286.509 L 186.596 286.508 L 185.608 286.225 L 186.221 287.051 C 186.394 286.923 186.534 286.73 186.596 286.508 L 185.608 286.225 L 186.221 287.051 L 185.608 286.225 L 185.608 287.253 C 185.834 287.253 186.047 287.18 186.221 287.051 L 185.608 286.225 L 185.608 287.253 L 185.608 286.225 L 185.324 287.213 C 185.416 287.24 185.513 287.253 185.608 287.253 L 185.608 286.225 L 185.324 287.213 L 185.325 287.214 L 185.349 287.221 C 186.032 287.416 186.743 287.022 186.939 286.339 L 187.16 285.567 C 187.356 284.885 186.961 284.173 186.279 283.977 L 186.261 283.972 L 185.907 285.208 L 187.191 285.268 C 187.206 284.943 187.24 284.625 187.294 284.294 L 187.294 284.293 C 187.365 283.845 187.398 283.4 187.398 282.961 C 187.398 282.169 187.292 281.4 187.116 280.661 C 186.941 279.922 186.697 279.213 186.415 278.535 L 186.382 278.462 C 185.973 277.628 185.752 276.706 185.752 275.754 C 185.752 275.693 185.753 275.631 185.755 275.57 L 185.755 275.561 L 185.756 275.542 L 184.471 275.513 L 185.755 275.555 C 185.76 275.4 185.769 275.255 185.783 275.118 L 185.784 275.108 C 185.789 275.061 185.8 274.985 185.814 274.88 L 185.814 274.885 C 185.832 274.752 185.844 274.659 185.856 274.6 L 185.856 274.597 C 185.893 274.405 185.934 274.222 185.984 274.047 L 185.985 274.047 C 186.339 272.813 187.037 271.784 187.95 271.018 L 187.95 271.018 C 188.407 270.636 188.916 270.321 189.461 270.084 L 189.461 270.084 C 189.642 270.005 189.828 269.935 190.017 269.873 L 190.016 269.873 C 190.394 269.75 190.784 269.664 191.182 269.615 C 191.425 269.586 191.671 269.571 191.919 269.571 C 192.077 269.571 192.235 269.577 192.394 269.589 C 192.803 269.621 193.215 269.694 193.627 269.812 C 194.038 269.93 194.427 270.087 194.79 270.277 L 194.79 270.277 C 195.154 270.466 195.492 270.689 195.804 270.941 L 195.804 270.941 C 196.116 271.193 196.401 271.474 196.656 271.778 L 196.655 271.778 C 196.783 271.93 196.903 272.088 197.014 272.251 L 197.015 272.251 C 197.351 272.741 197.616 273.278 197.8 273.844 L 199.022 273.446 Z " fill="rgb(133,135,136)"/><path d=" M 192.01 286.959 L 191.334 289.313 C 190.847 291.012 189.079 292.009 187.406 291.528 C 185.732 291.048 184.762 289.266 185.249 287.567 L 185.924 285.213 L 192.01 286.959 Z " fill="rgb(101,160,208)"/><path d=" M 198.358 279.516 L 198.367 279.5 C 198.456 279.348 198.541 279.193 198.619 279.034 C 198.661 278.949 198.698 278.863 198.737 278.776 C 198.783 278.671 198.833 278.566 198.875 278.457 C 198.957 278.246 199.033 278.031 199.097 277.809 C 199.523 276.323 199.467 274.813 199.022 273.446 C 198.8 272.763 198.48 272.115 198.074 271.524 C 197.939 271.327 197.794 271.136 197.64 270.953 C 197.333 270.585 196.989 270.246 196.612 269.942 C 196.235 269.637 195.825 269.367 195.385 269.137 C 194.945 268.908 194.476 268.719 193.981 268.577 C 193.486 268.435 192.988 268.346 192.493 268.308 C 191.999 268.269 191.508 268.281 191.027 268.339 C 190.546 268.398 190.074 268.503 189.619 268.651 C 189.391 268.725 189.167 268.81 188.948 268.906 C 188.291 269.192 187.676 269.571 187.125 270.033 C 186.023 270.956 185.175 272.206 184.749 273.692 C 184.685 273.914 184.635 274.137 184.593 274.36 C 184.571 274.475 184.558 274.589 184.541 274.704 C 184.528 274.797 184.514 274.891 184.505 274.984 C 184.487 275.161 184.476 275.337 184.471 275.513 L 184.47 275.532 C 184.433 276.762 184.703 277.957 185.228 279.028 C 185.893 280.631 186.302 282.35 186.024 284.091 C 185.965 284.463 185.924 284.831 185.907 285.208 L 188.901 286.067 L 189.016 286.1 L 192.01 286.959 C 192.195 286.63 192.355 286.297 192.502 285.949 C 193.19 284.326 194.448 283.085 195.862 282.079 C 196.875 281.449 197.737 280.578 198.358 279.516 Z " fill="rgb(255,223,129)"/><path d=" M 190.74 286.219 C 190.905 285.313 191.12 284.383 191.47 283.549 C 191.82 282.715 192.302 281.979 192.997 281.44 L 193.457 281.083 L 192.876 281.042 C 192.618 281.024 192.364 280.929 192.147 280.778 C 191.931 280.627 191.754 280.421 191.648 280.185 C 191.565 280.002 191.524 279.798 191.524 279.593 C 191.524 279.395 191.562 279.197 191.637 279.016 C 191.663 278.952 191.73 278.839 191.8 278.759 C 191.834 278.719 191.87 278.687 191.894 278.671 L 191.919 278.657 L 191.919 278.656 L 191.909 278.608 L 191.909 278.657 L 191.919 278.656 L 191.909 278.608 L 191.909 278.657 L 191.909 278.579 L 191.875 278.649 L 191.909 278.657 L 191.909 278.579 L 191.875 278.649 L 191.899 278.601 L 191.861 278.64 L 191.875 278.649 L 191.899 278.601 L 191.861 278.64 L 191.862 278.639 L 191.861 278.64 L 191.861 278.64 L 191.862 278.639 L 191.861 278.64 C 191.864 278.642 191.886 278.678 191.904 278.752 C 191.923 278.829 191.932 278.914 191.932 279.004 C 191.934 279.363 191.777 279.803 191.586 280.081 C 191.487 280.228 191.349 280.361 191.196 280.453 C 191.043 280.545 190.878 280.597 190.722 280.597 C 190.656 280.597 190.591 280.588 190.528 280.569 L 190.527 280.569 L 190.378 280.526 L 190.377 280.526 L 190.376 280.525 C 190.193 280.475 190.04 280.348 189.926 280.17 C 189.812 279.992 189.744 279.765 189.737 279.55 C 189.736 279.531 189.736 279.51 189.736 279.49 C 189.736 279.281 189.774 279.035 189.85 278.811 C 189.925 278.586 190.038 278.385 190.172 278.256 C 190.21 278.218 190.24 278.197 190.256 278.188 L 190.269 278.183 L 190.258 278.147 L 190.258 278.184 L 190.269 278.183 L 190.258 278.147 L 190.258 278.184 L 190.258 278.105 L 190.226 278.177 L 190.258 278.184 L 190.258 278.105 L 190.226 278.177 L 190.251 278.123 L 190.21 278.166 L 190.226 278.177 L 190.251 278.123 L 190.21 278.166 L 190.217 278.159 L 190.209 278.165 L 190.21 278.166 L 190.217 278.159 L 190.209 278.165 C 190.212 278.167 190.236 278.21 190.248 278.271 C 190.262 278.332 190.269 278.409 190.268 278.479 C 190.269 278.534 190.264 278.586 190.258 278.62 L 190.258 278.62 C 190.193 279.014 189.958 279.388 189.629 279.606 C 189.393 279.764 189.104 279.846 188.814 279.846 C 188.576 279.846 188.34 279.791 188.134 279.681 L 187.619 279.408 L 187.82 279.955 C 188.006 280.46 188.085 280.984 188.085 281.52 C 188.086 282.737 187.674 284.015 187.2 285.204 L 187.614 285.368 C 188.094 284.161 188.529 282.837 188.53 281.52 C 188.53 280.941 188.445 280.362 188.238 279.801 L 188.029 279.878 L 187.925 280.075 C 188.2 280.221 188.508 280.292 188.814 280.292 C 189.187 280.292 189.56 280.187 189.876 279.977 C 190.315 279.683 190.61 279.208 190.698 278.695 L 190.698 278.694 C 190.709 278.629 190.714 278.556 190.714 278.479 C 190.713 278.343 190.699 278.196 190.649 278.056 C 190.623 277.987 190.589 277.917 190.527 277.853 C 190.495 277.821 190.457 277.792 190.41 277.771 C 190.364 277.75 190.311 277.738 190.258 277.738 C 190.18 277.738 190.108 277.762 190.044 277.797 C 189.98 277.832 189.921 277.878 189.861 277.937 C 189.658 278.135 189.52 278.396 189.427 278.668 C 189.336 278.942 189.29 279.228 189.29 279.49 C 189.29 279.516 189.291 279.541 189.292 279.567 C 189.303 279.861 189.39 280.157 189.55 280.409 C 189.709 280.66 189.948 280.869 190.257 280.955 L 190.255 280.954 L 190.403 280.997 L 190.401 280.996 C 190.507 281.028 190.615 281.042 190.722 281.042 C 190.975 281.042 191.216 280.961 191.426 280.834 C 191.637 280.707 191.819 280.532 191.955 280.331 C 192.194 279.975 192.375 279.483 192.377 279.004 C 192.377 278.884 192.365 278.764 192.337 278.647 C 192.308 278.53 192.269 278.433 192.199 278.35 C 192.164 278.309 192.121 278.273 192.069 278.248 C 192.019 278.223 191.962 278.212 191.909 278.212 C 191.799 278.213 191.714 278.255 191.644 278.302 C 191.54 278.374 191.459 278.466 191.388 278.562 C 191.319 278.658 191.263 278.755 191.225 278.846 C 191.128 279.083 191.078 279.338 191.078 279.593 C 191.078 279.858 191.131 280.123 191.242 280.369 C 191.384 280.684 191.614 280.949 191.892 281.144 C 192.171 281.338 192.5 281.462 192.844 281.486 L 192.86 281.264 L 192.724 281.088 C 191.951 281.687 191.429 282.496 191.059 283.377 C 190.689 284.26 190.469 285.219 190.301 286.14 L 190.74 286.219 Z " fill="rgb(254,254,254)"/><path d=" M 185.537 286.472 L 191.653 288.227 C 191.789 288.266 191.932 288.187 191.971 288.051 C 192.01 287.914 191.931 287.772 191.794 287.733 L 185.679 285.978 C 185.542 285.939 185.4 286.018 185.361 286.154 C 185.322 286.291 185.401 286.433 185.537 286.472 Z " fill="rgb(85,140,176)"/><path d=" M 185.206 287.625 L 191.322 289.38 C 191.458 289.419 191.601 289.34 191.64 289.204 C 191.679 289.067 191.6 288.925 191.464 288.886 L 185.348 287.131 C 185.212 287.092 185.069 287.171 185.03 287.307 C 184.991 287.444 185.07 287.586 185.206 287.625 Z " fill="rgb(85,140,176)"/><path d=" M 197.424 276.354 C 197.304 277.578 196.385 278.491 195.373 278.391 C 194.36 278.292 193.636 277.219 193.757 275.994 C 193.877 274.77 194.795 273.857 195.807 273.957 C 196.82 274.056 197.544 275.129 197.424 276.354 Z " fill="rgb(254,254,254)"/><path d=" M 195.517 272.385 C 195.537 272.834 195.252 273.211 194.881 273.228 C 194.509 273.244 194.192 272.894 194.173 272.445 C 194.153 271.996 194.437 271.619 194.808 271.603 C 195.18 271.586 195.497 271.937 195.517 272.385 Z " fill="rgb(254,254,254)"/></g></g></svg>